# xmcd
#
# Track frame offsets:
#	150
#	10476
#	63265
#	90185
#	122490
#	176388
#	202360
#	237038
#	276164
#
# Disc length: 4135 seconds
#
# Revision: 0
# Processed by: cddbd v1.5.2PL0 Copyright (c) Steve Scherf et al.
# Submitted via: EZCDAudioConverter 1.2.3.1
#
DISCID=71102509
DTITLE=Larry Carlton - My Father's Place
DYEAR=1978
DGENRE=
TTITLE0=Intro
TTITLE1=Room 335
TTITLE2=Blues
TTITLE3=Don't Give It Up
TTITLE4=Rio Samba
TTITLE5=It Was Only Yesterday
TTITLE6=Nite Crawler
TTITLE7=Put It Where You Want It
TTITLE8=Tight Squeeze
EXTD=
EXTT0=
EXTT1=
EXTT2=
EXTT3=
EXTT4=
EXTT5=
EXTT6=
EXTT7=
EXTT8=
PLAYORDER=
